HIERARCHY
ROOT Hips
{
  OFFSET 13.6774 106.653 -34.4427
  CHANNELS 6 Xposition Yposition Zposition Zrotation Xrotation Yrotation
  JOINT ToSpine
  {
    OFFSET -2.69724 7.43032 -0.144315
    CHANNELS 3 Zrotation Xrotation Yrotation
    JOINT Spine
    {
      OFFSET -0.0310711 10.7595 1.96963
      CHANNELS 3 Zrotation Xrotation Yrotation
      JOINT Spine1
      {
        OFFSET 19.9056 3.91189 0.764692
        CHANNELS 3 Zrotation Xrotation Yrotation
        JOINT Neck
        {
          OFFSET 25.9749 7.03908 -0.130764
          CHANNELS 3 Zrotation Xrotation Yrotation
          JOINT Head
          {
            OFFSET 9.52751 0.295786 -0.907742
            CHANNELS 3 Zrotation Xrotation Yrotation
            End Site
            {
              OFFSET 16.4037 0.713936 2.7358
            }
          }
        }
        JOINT LeftShoulder
        {
          OFFSET 17.7449 4.33886 11.7777
          CHANNELS 3 Zrotation Xrotation Yrotation
          JOINT LeftArm
          {
            OFFSET 0.911315 1.27913 9.80584
            CHANNELS 3 Zrotation Xrotation Yrotation
            JOINT LeftForeArm
            {
              OFFSET 28.6126 1.18197 -3.53199
              CHANNELS 3 Zrotation Xrotation Yrotation
              JOINT LeftHand
              {
                OFFSET 27.5088 0.0218783 0.327423
                CHANNELS 3 Zrotation Xrotation Yrotation
                End Site
                {
                  OFFSET 18.6038 -0.000155887 0.382096
                }
              }
            }
          }
        }
        JOINT RightShoulder
        {
          OFFSET 17.1009 2.89543 -12.2328
          CHANNELS 3 Zrotation Xrotation Yrotation
          JOINT RightArm
          {
            OFFSET 1.4228 0.178766 -10.211
            CHANNELS 3 Zrotation Xrotation Yrotation
            JOINT RightForeArm
            {
              OFFSET 28.733 1.87905 2.64907
              CHANNELS 3 Zrotation Xrotation Yrotation
              JOINT RightHand
              {
                OFFSET 27.4588 0.290562 -0.101845
                CHANNELS 3 Zrotation Xrotation Yrotation
                End Site
                {
                  OFFSET 17.8396 -0.255518 -0.000602873
                }
              }
            }
          }
        }
      }
    }
  }
  JOINT LeftUpLeg
  {
    OFFSET -5.61296 -2.22332 -10.2353
    CHANNELS 3 Zrotation Xrotation Yrotation
    JOINT LeftLeg
    {
      OFFSET 2.56703 -44.7417 -7.93097
      CHANNELS 3 Zrotation Xrotation Yrotation
      JOINT LeftFoot
      {
        OFFSET 3.16933 -46.5642 -3.96578
        CHANNELS 3 Zrotation Xrotation Yrotation
        JOINT LeftToeBase
        {
          OFFSET 0.346054 -6.02161 12.8035
          CHANNELS 3 Zrotation Xrotation Yrotation
          End Site
          {
            OFFSET 0.134235 -1.35082 5.13018
          }
        }
      }
    }
  }
  JOINT RightUpLeg
  {
    OFFSET -5.7928 -1.72406 10.6446
    CHANNELS 3 Zrotation Xrotation Yrotation
    JOINT RightLeg
    {
      OFFSET -2.57161 -44.7178 -7.85259
      CHANNELS 3 Zrotation Xrotation Yrotation
      JOINT RightFoot
      {
        OFFSET -3.10148 -46.5936 -4.03391
        CHANNELS 3 Zrotation Xrotation Yrotation
        JOINT RightToeBase
        {
          OFFSET -0.0828122 -6.13587 12.8035
          CHANNELS 3 Zrotation Xrotation Yrotation
          End Site
          {
            OFFSET -0.131328 -1.35082 5.13018
          }
        }
      }
    }
  }
}
MOTION
Frames: 6
Frame Time: 0.03333333333333333
0.0000 93.1000 0.0000 -51.8252 -15.3235 -149.0772 -70.9885 -0.6881 88.0244 166.1810 50.8615 -73.2548 23.3261 26.7410 -7.5660 175.0393 17.1879 178.7087 -137.7906 53.9183 168.3505 3.5402 -20.2128 -10.0613 -105.9678 28.1830 -160.6029 -6.2902 48.9323 6.1227 11.0959 -2.5939 -0.8153 -0.0541 11.2367 22.3440 -76.8509 -35.7999 147.9269 45.6619 -6.9024 82.7661 11.9630 -0.1905 -14.3738 21.9255 10.7692 79.0444 -170.9544 53.9363 167.8340 5.4210 0.6599 -2.2828 -12.6115 -46.5690 5.4126 -14.5958 -2.9838 81.8429 155.6012 75.2528 -130.8975 -11.5855 -16.0806 1.0447 15.3388 -34.9583 -7.0020 
0.0000 93.1000 0.0000 -49.8843 -13.7487 -151.0049 -70.9958 0.1564 88.0241 164.1484 50.6392 -75.1711 22.5074 26.6604 -8.9981 177.3672 17.1279 -178.1700 -139.9844 54.7890 173.4012 0.5643 -20.7851 -12.3090 -108.1082 27.8221 -157.7584 -4.9167 46.6003 4.8913 12.0192 -1.0156 -1.8814 -1.2687 10.4357 19.6385 -77.9358 -38.5271 151.9612 49.0320 -2.2989 88.8750 11.1055 -1.9399 -16.0083 27.3190 10.0306 80.3599 -167.9177 64.2448 164.2226 5.0875 -0.4897 -1.1022 -12.2884 -49.1654 5.2906 -20.0529 -3.8633 84.2901 125.7998 83.0435 -100.0816 -11.1344 -15.9489 0.9737 14.2520 -36.0876 -8.1019 
0.0000 93.1000 0.0000 -47.0522 -13.3174 -152.9318 -71.0040 0.0177 88.0285 160.2831 51.1889 -76.6344 20.5332 25.9168 -9.3909 177.0955 16.3316 -179.2532 -140.0631 54.5941 173.3692 -0.4831 -19.9850 -13.5349 -108.8014 24.7562 -153.7944 -3.2149 42.9266 2.5672 12.1716 -0.7202 -2.4512 -1.6036 9.3622 13.9647 -78.2859 -39.5023 155.0653 49.2620 2.8690 93.9935 10.6720 -2.1370 -15.9988 29.4250 11.1815 82.8860 -163.9008 74.1829 161.1497 4.7557 0.2074 -0.6750 -12.2912 -49.8130 5.6526 -25.2941 -5.5000 87.0927 34.9504 82.4699 -10.0287 -9.9825 -15.2830 0.6757 12.4385 -35.7807 -8.8768 
0.0000 93.1000 0.0000 -44.0092 -12.6602 -154.7672 -70.9751 -0.7321 88.0046 155.1783 52.8308 -73.9912 16.6360 24.8708 -12.1972 -179.3548 16.6626 175.8647 -138.0701 52.6628 172.4300 1.4630 -18.8836 -16.0340 -107.0726 21.4069 -149.5610 -2.0662 40.0715 -2.8637 11.5598 -1.5675 -1.1190 0.4882 7.6989 10.3968 -75.8525 -38.7198 153.9615 49.4264 5.8760 95.6730 11.6475 -1.0732 -12.4449 27.2605 12.9839 88.0262 -153.3973 80.9305 150.6419 4.1014 2.8780 -1.1079 -13.3985 -51.0705 7.5595 -31.8702 -8.1782 87.8077 12.6980 70.7376 13.1237 -10.2890 -15.1003 1.7390 12.7666 -34.5188 -10.4850 
0.0000 93.1000 0.0000 -41.7375 -15.0976 -153.8245 -70.9796 -0.6580 88.0021 151.4081 55.7211 -70.9502 15.5202 24.3722 -12.7612 -177.4998 16.0881 171.8688 -138.0711 51.9789 171.4086 0.9183 -17.8230 -19.0344 -101.6844 15.8014 -147.6429 2.3072 34.7391 -12.8318 12.1866 -1.5389 -1.0992 -0.0903 6.2982 13.7428 -71.0001 -37.0843 143.9331 52.0409 2.2339 92.9627 10.2201 -1.0198 -11.5904 19.2141 13.0224 93.1931 -142.8963 83.2579 136.1447 5.0200 2.0893 -1.1643 -12.9614 -49.1849 8.8830 -41.7781 -9.5790 87.9628 5.9184 60.1227 16.7722 -8.6345 -13.9712 1.4397 10.0695 -30.5530 -7.8879 
0.0000 93.1000 0.0000 -40.9297 -17.9825 -150.7386 -70.9765 -0.3579 88.0096 147.3150 58.1499 -65.0783 14.9690 23.1040 -12.4123 -175.9457 15.7666 169.7121 -140.9917 51.4598 172.2703 0.8228 -16.1074 -19.9903 -86.8577 3.2398 -145.7205 10.7401 21.5640 -25.3499 12.6311 -1.3670 -1.3764 -0.2822 4.9090 18.9565 -63.0671 -38.2934 130.9758 46.0450 -7.9732 81.6759 7.8173 -0.8901 -10.6668 9.9906 11.1707 95.9311 -141.1675 83.1531 134.8884 7.0009 2.7198 -1.6457 -14.4163 -53.9791 2.9456 -51.9719 -6.8640 91.0941 4.1016 52.2227 10.0437 -6.3451 -7.5982 0.9443 -0.7682 -7.3303 5.0294 
